<?xml version="1.0" encoding="iso-8859-1"?>
<!-- Generator: Adobe Illustrator 19.0.0, SVG Export Plug-In . SVG Version: 6.00 Build 0)  -->
<svg version="1.1" id="Capa_1" xmlns="http://www.w3.org/2000/svg" xmlns:xlink="http://www.w3.org/1999/xlink" x="0px" y="0px"
	 viewBox="0 0 511.993 511.993" style="enable-background:new 0 0 511.993 511.993;" xml:space="preserve">
<path style="fill:#414B82;" d="M139.566,199.631H97.653c-12.98,0-23.503,10.523-23.503,23.502v121.075l-2.49,59.474l-33.618,81.596
	c-4.068,9.876,0.639,21.181,10.516,25.25c2.411,0.994,4.905,1.463,7.36,1.463c7.603,0,14.814-4.512,17.891-11.978l34.917-84.748
	c0.859-2.086,1.347-4.305,1.441-6.559l2.687-64.181c0.02-0.474,0.002-0.939-0.012-1.406c14.579-2.967,28.14-10.009,39.01-20.48
	l11.217-10.806V223.13C163.068,210.153,152.545,199.631,139.566,199.631z"/>
<path style="fill:#695A6E;" d="M463.642,354.107l-33.619-81.596l-2.543-60.774c-0.025-0.593-0.086-1.176-0.162-1.753L401.154,92.272
	c-2.826-12.669-15.386-20.648-28.054-17.824l-40.908,9.123c-12.669,2.826-20.648,15.386-17.824,28.054l26.246,117.693l48.433-10.801
	l2.47,59.018c0.094,2.254,0.582,4.473,1.442,6.559l34.917,84.748c3.076,7.466,10.287,11.977,17.89,11.977
	c2.455,0,4.95-0.47,7.36-1.463C463.003,375.288,467.71,363.983,463.642,354.107z"/>
<path style="fill:#343E6B;" d="M208.66,449.001c-8.871,0-16.864-6.139-18.865-15.158l-17.956-80.964l-63.311-12.043
	c-10.494-1.996-17.382-12.121-15.386-22.615c1.996-10.494,12.123-17.383,22.615-15.386l75.821,14.424
	c7.592,1.444,13.595,7.268,15.268,14.813l20.712,93.397c2.313,10.429-4.266,20.757-14.695,23.07
	C211.456,448.851,210.047,449.001,208.66,449.001z"/>
<path style="fill:#64AFFF;" d="M74.151,344.717V223.133c0-12.98,10.523-23.503,23.503-23.503h41.912
	c12.98,0,23.503,10.523,23.503,23.503v88.702l-11.217,10.806c-14.703,14.164-34.324,22.077-54.738,22.077L74.151,344.717
	L74.151,344.717z"/>
<circle style="fill:#FFB69E;" cx="124.211" cy="153.074" r="34.792"/>
<path style="fill:#FFB69E;" d="M175.968,270.601c-2.321,0-4.636-0.522-6.769-1.559l-62.105-30.208
	c-7.685-3.738-10.884-12.997-7.146-20.682c3.739-7.684,12.998-10.884,20.682-7.146l55.967,27.223l55.39-22.011
	c7.94-3.156,16.937,0.724,20.093,8.665s-0.724,16.937-8.665,20.093l-61.733,24.533C179.844,270.237,177.904,270.601,175.968,270.601
	z"/>
<path style="fill:#78BEFF;" d="M155.266,227.851l-34.635-16.847c-7.685-3.738-16.944-0.538-20.682,7.146
	c-3.738,7.685-0.539,16.945,7.146,20.682l34.101,16.587L155.266,227.851z"/>
<path style="fill:#50374B;" d="M326.279,380.821c-0.869,0-1.749-0.059-2.633-0.179c-10.585-1.441-17.997-11.189-16.556-21.773
	l12.714-93.397c0.188-1.383,0.525-2.741,1.006-4.051l26.928-73.415c3.679-10.028,14.79-15.177,24.819-11.499
	c10.029,3.679,15.176,14.79,11.499,24.818l-26.205,71.444l-12.431,91.317C344.098,373.786,335.802,380.821,326.279,380.821z"/>
<path style="fill:#FF3C3C;" d="M387.446,220.652l39.873-10.665l-0.5-2.629L401.154,92.272
	c-2.826-12.669-15.386-20.648-28.054-17.824l-40.908,9.123c-12.669,2.826-20.648,15.386-17.824,28.054l23.095,103.567l1.638,0.798
	C354.129,223.317,371.296,224.971,387.446,220.652z"/>
<circle style="fill:#BA6746;" cx="337.054" cy="34.792" r="34.792"/>
<path style="fill:#A5C8CD;" d="M296.546,387.852v53.842c0,3.949-3.202,7.152-7.152,7.152H124.833c-3.949,0-7.152,3.202-7.152,7.152
	v48.843c0,3.95,3.202,7.152,7.152,7.152h171.714h171.714c3.949,0,7.152-3.202,7.152-7.152v-58.994v-57.995
	c0-3.95-3.202-7.152-7.152-7.152H303.698C299.749,380.7,296.546,383.902,296.546,387.852z"/>
<path style="fill:#BA6746;" d="M258.923,196.11c-5.909-1.017-10.939-5.439-12.428-11.64c-1.996-8.309,3.121-16.663,11.431-18.66
	l57.954-13.924l30.057-54.497c4.125-7.482,13.537-10.205,21.021-6.076c7.483,4.127,10.204,13.538,6.076,21.021l-33.354,60.474
	c-2.1,3.808-5.705,6.556-9.934,7.572L265.155,195.9C263.044,196.407,260.932,196.455,258.923,196.11z"/>
<path style="fill:#FF4F38;" d="M354.622,145.717l18.412-33.382c4.127-7.483,1.407-16.894-6.076-21.021
	c-7.484-4.127-16.895-1.406-21.021,6.076l-18.415,33.388L354.622,145.717z"/>
<g>
</g>
<g>
</g>
<g>
</g>
<g>
</g>
<g>
</g>
<g>
</g>
<g>
</g>
<g>
</g>
<g>
</g>
<g>
</g>
<g>
</g>
<g>
</g>
<g>
</g>
<g>
</g>
<g>
</g>
</svg>
