<svg xmlns="http://www.w3.org/2000/svg" height="512pt" version="1.1" viewBox="0 0 512 512" width="512pt">
<g id="surface1">
<path d="M 512 256 C 512 397.386719 397.386719 512 256 512 C 114.613281 512 0 397.386719 0 256 C 0 114.613281 114.613281 0 256 0 C 397.386719 0 512 114.613281 512 256 Z M 512 256 " style=" stroke:none;fill-rule:nonzero;fill:rgb(25.490196%,28.627451%,32.156863%);fill-opacity:1;" />
<path d="M 512 256 C 512 241.296875 510.742188 226.886719 508.363281 212.863281 L 431.167969 135.664062 L 401.332031 191.035156 L 287.292969 77 L 80.832031 376.332031 L 212.863281 508.363281 C 226.886719 510.742188 241.296875 512 256 512 C 397.386719 512 512 397.386719 512 256 Z M 512 256 " style=" stroke:none;fill-rule:nonzero;fill:rgb(13.72549%,15.294118%,16.862745%);fill-opacity:1;" />
<path d="M 80.832031 135.667969 L 431.164062 135.667969 L 431.164062 376.335938 L 80.832031 376.335938 Z M 80.832031 135.667969 " style=" stroke:none;fill-rule:nonzero;fill:rgb(100%,100%,100%);fill-opacity:1;" />
<path d="M 80.832031 135.667969 L 255.761719 135.667969 L 255.761719 376.335938 L 80.832031 376.335938 Z M 80.832031 135.667969 " style=" stroke:none;fill-rule:nonzero;fill:rgb(100%,100%,100%);fill-opacity:1;" />
<path d="M 255.761719 135.667969 L 431.167969 135.667969 L 431.167969 376.335938 L 255.761719 376.335938 Z M 255.761719 135.667969 " style=" stroke:none;fill-rule:nonzero;fill:rgb(91.372549%,92.941176%,96.078431%);fill-opacity:1;" />
<path d="M 106 163.429688 L 222 163.429688 L 222 297 L 106 297 Z M 106 163.429688 " style=" stroke:none;fill-rule:nonzero;fill:rgb(86.27451%,88.235294%,92.156863%);fill-opacity:1;" />
<path d="M 222 272.394531 C 212.515625 256.792969 196.914062 245.328125 178.523438 241.316406 C 191.378906 235.707031 200.367188 222.894531 200.367188 207.972656 C 200.367188 187.890625 184.085938 171.605469 164 171.605469 C 143.914062 171.605469 127.632812 187.890625 127.632812 207.972656 C 127.632812 222.894531 136.621094 235.707031 149.472656 241.316406 C 131.085938 245.328125 115.480469 256.792969 105.996094 272.394531 L 105.996094 297 L 221.996094 297 L 221.996094 272.394531 Z M 222 272.394531 " style=" stroke:none;fill-rule:nonzero;fill:rgb(68.627451%,70.588235%,78.431373%);fill-opacity:1;" />
<path d="M 250 227.089844 L 396.839844 227.089844 L 396.839844 251.089844 L 250 251.089844 Z M 250 227.089844 " style=" stroke:none;fill-rule:nonzero;fill:rgb(74.509804%,76.470588%,82.352941%);fill-opacity:1;" />
<path d="M 255.761719 227.089844 L 396.839844 227.089844 L 396.839844 251.089844 L 255.761719 251.089844 Z M 255.761719 227.089844 " style=" stroke:none;fill-rule:nonzero;fill:rgb(68.627451%,70.588235%,78.431373%);fill-opacity:1;" />
<path d="M 250 273.089844 L 396.839844 273.089844 L 396.839844 297.089844 L 250 297.089844 Z M 250 273.089844 " style=" stroke:none;fill-rule:nonzero;fill:rgb(74.509804%,76.470588%,82.352941%);fill-opacity:1;" />
<path d="M 255.761719 273.089844 L 396.839844 273.089844 L 396.839844 297.089844 L 255.761719 297.089844 Z M 255.761719 273.089844 " style=" stroke:none;fill-rule:nonzero;fill:rgb(68.627451%,70.588235%,78.431373%);fill-opacity:1;" />
<path d="M 103.757812 319.089844 L 396.839844 319.089844 L 396.839844 343.089844 L 103.757812 343.089844 Z M 103.757812 319.089844 " style=" stroke:none;fill-rule:nonzero;fill:rgb(74.509804%,76.470588%,82.352941%);fill-opacity:1;" />
<path d="M 255.761719 319.089844 L 396.839844 319.089844 L 396.839844 343.089844 L 255.761719 343.089844 Z M 255.761719 319.089844 " style=" stroke:none;fill-rule:nonzero;fill:rgb(68.627451%,70.588235%,78.431373%);fill-opacity:1;" />
<path d="M 224.703125 77 L 287.292969 77 L 287.292969 150.675781 L 224.703125 150.675781 Z M 224.703125 77 " style=" stroke:none;fill-rule:nonzero;fill:rgb(98.039216%,36.470588%,5.882353%);fill-opacity:1;" />
<path d="M 255.761719 77 L 287.292969 77 L 287.292969 150.675781 L 255.761719 150.675781 Z M 255.761719 77 " style=" stroke:none;fill-rule:nonzero;fill:rgb(94.901961%,27.058824%,0%);fill-opacity:1;" />
</g>
</svg>